<svg width="165" height="50" viewBox="0 0 165 50" fill="none" xmlns="http://www.w3.org/2000/svg">
<path d="M0.957031 22.2422C0.683594 21.3958 0.501302 20.6406 0.410156 19.9766C0.332031 19.3125 0.292969 18.4531 0.292969 17.3984C0.501302 17.2161 0.839844 17.0078 1.30859 16.7734C1.77734 16.526 2.33724 16.3112 2.98828 16.1289C3.63932 15.9466 4.3099 15.8555 5 15.8555C6.57552 15.8555 7.6888 16.194 8.33984 16.8711C9.00391 17.5482 9.33594 18.5638 9.33594 19.918C9.33594 20.6732 9.22526 21.6953 9.00391 22.9844C8.63932 25.0547 8.45703 26.1419 8.45703 26.2461C8.45703 26.3112 8.5026 26.3763 8.59375 26.4414C8.6849 26.4935 8.78255 26.5195 8.88672 26.5195C9.00391 26.5195 9.08203 26.474 9.12109 26.3828L9.31641 25.6016L9.74609 23.9414C10.3841 21.5326 11.3346 19.5859 12.5977 18.1016C13.8607 16.6042 15.4492 15.8555 17.3633 15.8555C18.7956 15.8555 19.9609 16.168 20.8594 16.793C21.7708 17.4049 22.4284 18.2188 22.832 19.2344C23.2357 20.237 23.4375 21.3438 23.4375 22.5547C23.4375 24.1953 23.2812 26.0378 22.9688 28.082C22.6562 30.1133 22.2396 32.0143 21.7188 33.7852C21.2109 35.5169 20.3646 36.8906 19.1797 37.9062C18.0078 38.9089 16.543 39.4102 14.7852 39.4102C14.1471 39.4102 13.3984 39.306 12.5391 39.0977C11.6927 38.9023 10.6185 38.5573 9.31641 38.0625L8.53516 41.7539L8.57422 41.793L12.3047 41.5391C12.5521 41.8906 12.7344 42.3138 12.8516 42.8086C12.9818 43.3164 13.0924 43.8958 13.1836 44.5469L13.2422 44.9375C13.2422 44.9896 12.9557 45.2305 12.3828 45.6602C11.8099 46.1029 11.0482 46.5065 10.0977 46.8711C9.14714 47.2487 8.05339 47.4375 6.81641 47.4375C4.01693 47.4375 2.61719 45.9466 2.61719 42.9648V41.6172C2.61719 37.6458 2.64323 34.1107 2.69531 31.0117C2.76042 27.8997 2.89062 25.0938 3.08594 22.5938L0.957031 22.2422ZM14.707 34.1953C15.1758 32.4375 15.4102 29.7747 15.4102 26.207C15.4102 25.5951 15.3776 25.1003 15.3125 24.7227C15.013 24.3451 14.5833 24.1562 14.0234 24.1562C13.8411 24.3125 13.2161 25.3411 12.1484 27.2422C11.0807 29.1302 10.293 30.582 9.78516 31.5977V32.5352C10.5013 33.0299 11.3281 33.4401 12.2656 33.7656C13.2031 34.0781 13.9193 34.2344 14.4141 34.2344C14.5312 34.2344 14.6289 34.2214 14.707 34.1953ZM25.7227 27.6523C25.7227 25.3997 26.1003 23.388 26.8555 21.6172C27.6107 19.8464 28.776 18.4466 30.3516 17.418C31.9401 16.3763 33.9193 15.8555 36.2891 15.8555C37.526 15.8555 38.763 16.0052 40 16.3047C41.237 16.5911 42.2852 17.0729 43.1445 17.75C43.9388 18.388 44.5117 19.2344 44.8633 20.2891C45.2279 21.3307 45.4102 22.4896 45.4102 23.7656C45.4102 24.612 45.3385 25.4779 45.1953 26.3633C45.0391 26.6237 44.7331 26.9688 44.2773 27.3984C43.8216 27.8151 43.2878 28.2253 42.6758 28.6289C42.0638 29.0326 41.4714 29.3451 40.8984 29.5664C40.3516 29.6055 39.7852 29.625 39.1992 29.625C38.1706 29.625 37.1289 29.5794 36.0742 29.4883C35.0195 29.3971 34.0951 29.293 33.3008 29.1758C33.4049 30.2826 33.7435 31.2461 34.3164 32.0664C34.8893 32.8867 35.8008 33.2969 37.0508 33.2969C37.168 33.2969 37.3568 33.2839 37.6172 33.2578C38.4115 33.1797 39.3359 32.9714 40.3906 32.6328C41.4583 32.2812 42.5195 31.8776 43.5742 31.4219C44.069 31.9167 44.4336 32.4115 44.668 32.9062C44.9023 33.401 45.0651 34.1107 45.1562 35.0352C44.7526 35.5039 44.0951 36.0768 43.1836 36.7539C42.2852 37.431 41.1849 38.043 39.8828 38.5898C38.5807 39.1237 37.2201 39.3906 35.8008 39.3906C33.6654 39.3906 31.8359 38.8763 30.3125 37.8477C28.8021 36.806 27.6562 35.3997 26.875 33.6289C26.1068 31.8451 25.7227 29.8529 25.7227 27.6523ZM38.3008 23.1602C38.1185 22.9648 37.8125 22.8151 37.3828 22.7109C36.9531 22.5938 36.5039 22.5352 36.0352 22.5352C35.6576 22.5352 35.2734 22.5677 34.8828 22.6328C34.5052 22.6979 34.2773 22.7695 34.1992 22.8477C33.7565 23.7201 33.4766 24.7096 33.3594 25.8164L38.5742 25.3086L38.3008 23.1602ZM49.8633 32.2031C49.8633 30.0807 49.8893 28.4792 49.9414 27.3984C49.9935 26.3047 50.1302 24.7031 50.3516 22.5938L48.0859 22.3008C47.8125 21.4544 47.6302 20.6992 47.5391 20.0352C47.4609 19.3711 47.4219 18.5117 47.4219 17.457C47.6302 17.2747 47.9753 17.0599 48.457 16.8125C48.9518 16.5521 49.5378 16.3307 50.2148 16.1484C50.8919 15.9531 51.5755 15.8555 52.2656 15.8555C53.8411 15.8555 54.9544 16.194 55.6055 16.8711C56.2695 17.5482 56.6016 18.5638 56.6016 19.918C56.6016 20.6732 56.4909 21.6953 56.2695 22.9844C55.9049 25.0547 55.7227 26.1419 55.7227 26.2461C55.7227 26.3112 55.7682 26.3763 55.8594 26.4414C55.9505 26.4935 56.0482 26.5195 56.1523 26.5195C56.2695 26.5195 56.3477 26.474 56.3867 26.3828C56.9076 24.3125 57.4284 22.5807 57.9492 21.1875C58.4701 19.7943 59.2578 18.5573 60.3125 17.4766C61.3672 16.3958 62.7344 15.8555 64.4141 15.8555C66.4974 15.8555 67.9948 16.4935 68.9062 17.7695C69.8177 19.0326 70.2734 20.6276 70.2734 22.5547C70.2734 24.2734 70.0716 25.9336 69.668 27.5352C69.2643 29.1237 68.763 30.7839 68.1641 32.5156C68.1901 32.4505 68.099 32.7044 67.8906 33.2773L67.9297 33.3164L70.7812 32.1445C71.7969 33.0169 72.3893 34.1758 72.5586 35.6211C72.5586 35.7122 72.2656 36.0833 71.6797 36.7344C71.1068 37.3854 70.3451 37.9909 69.3945 38.5508C68.444 39.1107 67.3503 39.3906 66.1133 39.3906C64.8763 39.3906 63.8672 39.0586 63.0859 38.3945C62.3047 37.7305 61.9141 36.5977 61.9141 34.9961C61.9141 33.7201 61.9661 32.0143 62.0703 29.8789C62.1745 27.7435 62.2786 26.0247 62.3828 24.7227C62.0443 24.3581 61.6276 24.1628 61.1328 24.1367C60.6771 24.7227 60.0065 25.8945 59.1211 27.6523C58.2357 29.4102 57.6107 30.7253 57.2461 31.5977C57.2201 31.7799 57.207 31.9557 57.207 32.125C57.207 32.776 57.3047 33.6549 57.5 34.7617C57.6953 35.8555 57.9362 36.8776 58.2227 37.8281C57.9883 38.2708 57.5065 38.6419 56.7773 38.9414C56.0482 39.2409 55.1497 39.3906 54.082 39.3906C53.1185 39.3906 52.3438 39.3125 51.7578 39.1562C51.1849 39 50.7812 38.8372 50.5469 38.668C50.3125 38.4857 50.1953 38.375 50.1953 38.3359C50.1823 38.2188 50.1497 37.9128 50.0977 37.418C50.0456 36.9102 49.9935 36.207 49.9414 35.3086C49.8893 34.3971 49.8633 33.362 49.8633 32.2031ZM74.1406 27.7305C74.1406 25.7513 74.4141 23.8568 74.9609 22.0469C75.5208 20.237 76.3932 18.7526 77.5781 17.5938C78.776 16.4349 80.2799 15.8555 82.0898 15.8555C84.1211 15.8555 86.0612 16.5 87.9102 17.7891L88.2227 17.5938C88.1836 16.0703 87.9948 14.6901 87.6562 13.4531L83.6914 13.1992C83.5091 12.9648 83.3659 12.6198 83.2617 12.1641C83.1576 11.6953 83.1055 11.2135 83.1055 10.7188C83.1055 10.0547 83.1836 9.48177 83.3398 9C84.1211 8.4401 85.1237 8.01693 86.3477 7.73047C87.5716 7.44401 88.7956 7.30078 90.0195 7.30078C91.3737 7.30078 92.3958 7.58724 93.0859 8.16016C93.776 8.72005 94.2383 9.57292 94.4727 10.7188C94.7201 11.8516 94.8438 13.4271 94.8438 15.4453C94.8438 18.1016 94.7331 21.1159 94.5117 24.4883C94.2904 27.8607 94.0039 30.6146 93.6523 32.75L93.5742 33.082L95.8398 32.1055C96.2174 32.5091 96.5495 33.0039 96.8359 33.5898C97.1354 34.1628 97.3242 34.8268 97.4023 35.582C97.2201 35.9727 96.8229 36.474 96.2109 37.0859C95.599 37.6849 94.8503 38.2188 93.9648 38.6875C93.0794 39.1562 92.1549 39.3906 91.1914 39.3906C90.1107 39.3906 89.2773 39.0716 88.6914 38.4336C88.1185 37.7826 87.832 36.9557 87.832 35.9531C87.832 35.6927 87.8971 35.1589 88.0273 34.3516C88.1706 33.5443 88.2878 32.9844 88.3789 32.6719L87.793 32.4961C87.1289 34.8268 86.25 36.5586 85.1562 37.6914C84.0625 38.8242 82.7083 39.3906 81.0938 39.3906C79.362 39.3906 77.9753 38.8177 76.9336 37.6719C75.9049 36.513 75.1823 35.0612 74.7656 33.3164C74.349 31.5716 74.1406 29.7096 74.1406 27.7305ZM87.5391 27.3789C87.6172 26.9102 87.6562 26.3633 87.6562 25.7383C87.6562 25.3346 87.6367 24.9505 87.5977 24.5859C87.5716 24.2214 87.5391 23.9609 87.5 23.8047C86.9792 23.4271 86.3867 23.1602 85.7227 23.0039C85.0716 22.8477 84.4727 22.7695 83.9258 22.7695C83.5872 22.7695 83.2227 22.8021 82.832 22.8672C82.5716 23.1276 82.3633 23.694 82.207 24.5664C82.0508 25.4258 81.9727 26.3958 81.9727 27.4766C81.9727 28.6354 82.0508 29.7617 82.207 30.8555C82.3763 31.9362 82.6107 32.7826 82.9102 33.3945C83.1185 33.3945 83.5221 33.0755 84.1211 32.4375C84.7331 31.7865 85.3646 30.9922 86.0156 30.0547C86.6667 29.1042 87.1745 28.2122 87.5391 27.3789ZM98.7305 27.457C98.7305 25.1003 99.1081 23.056 99.8633 21.3242C100.618 19.5924 101.777 18.2513 103.34 17.3008C104.902 16.3372 106.862 15.8555 109.219 15.8555C111.823 15.8555 113.867 16.3438 115.352 17.3203C116.836 18.2839 117.871 19.625 118.457 21.3438C119.056 23.0625 119.355 25.1654 119.355 27.6523C119.355 29.9049 118.958 31.9167 118.164 33.6875C117.383 35.4453 116.198 36.8385 114.609 37.8672C113.034 38.8828 111.1 39.3906 108.809 39.3906C105.267 39.3906 102.702 38.3034 101.113 36.1289C99.5247 33.9414 98.7305 31.0508 98.7305 27.457ZM109.609 33.668C110.273 33.668 110.677 33.6159 110.82 33.5117C111.12 32.9909 111.348 32.2552 111.504 31.3047C111.66 30.3542 111.738 29.3255 111.738 28.2188C111.738 27.2031 111.673 26.2526 111.543 25.3672C111.413 24.4688 111.23 23.7656 110.996 23.2578C110.853 23.0885 110.566 22.9648 110.137 22.8867C109.707 22.7956 109.238 22.75 108.73 22.75C108.066 22.75 107.611 22.8216 107.363 22.9648C106.712 24.0846 106.387 25.6406 106.387 27.6328C106.387 28.5703 106.458 29.5273 106.602 30.5039C106.745 31.4805 106.927 32.3659 107.148 33.1602C107.305 33.3294 107.624 33.4596 108.105 33.5508C108.587 33.6289 109.089 33.668 109.609 33.668Z" fill="#60781C"/>
</svg>
