<svg width="40" height="40" viewBox="0 0 40 40" fill="none" xmlns="http://www.w3.org/2000/svg">
<rect width="40" height="40" rx="20" fill="#F5F5F5"/>
<path fill-rule="evenodd" clip-rule="evenodd" d="M11.8038 14.2076C12.7039 13.3077 13.9246 12.8022 15.1974 12.8022C16.4702 12.8022 17.6909 13.3077 18.591 14.2076L19.9974 15.6128L21.4038 14.2076C21.8466 13.7491 22.3763 13.3834 22.9619 13.1319C23.5475 12.8803 24.1773 12.7479 24.8147 12.7424C25.452 12.7368 26.0841 12.8583 26.674 13.0996C27.2639 13.341 27.7998 13.6974 28.2505 14.1481C28.7012 14.5988 29.0576 15.1347 29.299 15.7246C29.5403 16.3145 29.6618 16.9466 29.6562 17.5839C29.6507 18.2212 29.5183 18.8511 29.2667 19.4367C29.0151 20.0223 28.6495 20.552 28.191 20.9948L19.9974 29.1896L11.8038 20.9948C10.904 20.0946 10.3984 18.874 10.3984 17.6012C10.3984 16.3284 10.904 15.1077 11.8038 14.2076Z" fill="#FF3B30"/>
</svg>
