<svg width="52" height="42" viewBox="0 0 52 42" fill="none" xmlns="http://www.w3.org/2000/svg">
<g clip-path="url(#clip0_98_922)">
<path d="M9.59053 40.9477V38.2806C9.59053 37.258 8.96805 36.5913 7.9011 36.5913C7.36772 36.5913 6.78979 36.7691 6.38966 37.3471C6.07862 36.858 5.63414 36.5913 4.96732 36.5913C4.52264 36.5913 4.07836 36.7246 3.72257 37.2136V36.6802H2.78906V40.9477H3.72257V38.5916C3.72257 37.8361 4.12271 37.4803 4.74518 37.4803C5.36725 37.4803 5.67869 37.8804 5.67869 38.5916V40.9477H6.6122V38.5916C6.6122 37.8361 7.05648 37.4803 7.63441 37.4803C8.25688 37.4803 8.56792 37.8804 8.56792 38.5916V40.9477H9.59053ZM23.4152 36.6802H21.904V35.3911H20.9704V36.6802H20.1258V37.5246H20.9702V39.4808C20.9702 40.4588 21.3704 41.0366 22.4373 41.0366C22.8375 41.0366 23.2817 40.9033 23.5932 40.7255L23.3263 39.9253C23.0596 40.103 22.7486 40.1476 22.5262 40.1476C22.0817 40.1476 21.904 39.8809 21.904 39.4362V37.5246H23.4152V36.6802ZM31.328 36.5911C30.7946 36.5911 30.439 36.858 30.2167 37.2136V36.6802H29.2831V40.9477H30.2167V38.5473C30.2167 37.8361 30.5277 37.436 31.1056 37.436C31.2834 37.436 31.5058 37.4805 31.6835 37.5249L31.9502 36.6359C31.7724 36.5913 31.5057 36.5913 31.328 36.5913M19.3701 37.036C18.9254 36.7248 18.3032 36.5915 17.6363 36.5915C16.5696 36.5915 15.8584 37.1249 15.8584 37.9695C15.8584 38.6809 16.3918 39.0808 17.3253 39.2143L17.7698 39.2588C18.2588 39.3475 18.5255 39.481 18.5255 39.7033C18.5255 40.0143 18.1699 40.2367 17.5474 40.2367C16.925 40.2367 16.4361 40.0143 16.1249 39.7922L15.6804 40.5034C16.1694 40.859 16.8363 41.0368 17.5029 41.0368C18.7476 41.0368 19.459 40.459 19.459 39.6588C19.459 38.903 18.8811 38.5029 17.9919 38.3697L17.5474 38.3251C17.1473 38.2806 16.8363 38.1919 16.8363 37.9252C16.8363 37.614 17.1473 37.4362 17.6363 37.4362C18.1699 37.4362 18.7033 37.6583 18.97 37.7917L19.3701 37.036ZM44.175 36.5915C43.6414 36.5915 43.2858 36.8582 43.0635 37.2138V36.6804H42.13V40.9479H43.0635V38.5475C43.0635 37.8363 43.3747 37.4362 43.9524 37.4362C44.1304 37.4362 44.3528 37.4807 44.5306 37.5251L44.7972 36.6361C44.6194 36.5915 44.3528 36.5915 44.175 36.5915ZM32.2615 38.8142C32.2615 40.1032 33.1504 41.0368 34.5286 41.0368C35.1509 41.0368 35.5954 40.9035 36.0399 40.5479L35.5954 39.7922C35.2398 40.0589 34.8842 40.1921 34.4841 40.1921C33.7284 40.1921 33.195 39.6588 33.195 38.8142C33.195 38.0141 33.7284 37.4805 34.4841 37.4362C34.8842 37.4362 35.2398 37.5694 35.5954 37.8363L36.0399 37.0806C35.5954 36.7248 35.1509 36.5915 34.5286 36.5915C33.1504 36.5915 32.2615 37.5251 32.2615 38.8142ZM40.8854 38.8142V36.6804H39.9519V37.2138C39.6407 36.8139 39.1962 36.5915 38.6183 36.5915C37.4181 36.5915 36.4845 37.5251 36.4845 38.8142C36.4845 40.1032 37.4181 41.0368 38.6183 41.0368C39.2405 41.0368 39.6852 40.8146 39.9519 40.4145V40.9479H40.8854V38.8142ZM37.4624 38.8142C37.4624 38.0584 37.9514 37.4362 38.7515 37.4362C39.5072 37.4362 40.0408 38.0141 40.0408 38.8142C40.0408 39.5699 39.5072 40.1921 38.7515 40.1921C37.9514 40.1476 37.4624 39.5699 37.4624 38.8142ZM26.3048 36.5915C25.0601 36.5915 24.1709 37.4805 24.1709 38.8142C24.1709 40.1478 25.0599 41.0368 26.3492 41.0368C26.9714 41.0368 27.5939 40.859 28.0829 40.459L27.6383 39.7922C27.2827 40.0589 26.8382 40.2367 26.3937 40.2367C25.8158 40.2367 25.2379 39.97 25.1044 39.2141H28.2607V38.8587C28.3053 37.4805 27.5052 36.5915 26.3048 36.5915ZM26.3046 37.3916C26.8823 37.3916 27.2827 37.7474 27.3714 38.4142H25.1488C25.2377 37.8363 25.6378 37.3916 26.3046 37.3916ZM49.4646 38.8142V34.9912H48.5311V37.2138C48.2198 36.8139 47.7754 36.5915 47.1974 36.5915C45.9972 36.5915 45.0637 37.5251 45.0637 38.8142C45.0637 40.1032 45.9972 41.0368 47.1974 41.0368C47.8199 41.0368 48.2644 40.8146 48.5311 40.4145V40.9479H49.4646V38.8142ZM46.0418 38.8142C46.0418 38.0584 46.5306 37.4362 47.3309 37.4362C48.0866 37.4362 48.62 38.0141 48.62 38.8142C48.62 39.5699 48.0866 40.1921 47.3309 40.1921C46.5306 40.1476 46.0418 39.5699 46.0418 38.8142ZM14.8356 38.8142V36.6804H13.9021V37.2138C13.5909 36.8139 13.1464 36.5915 12.5684 36.5915C11.3682 36.5915 10.4347 37.5251 10.4347 38.8142C10.4347 40.1032 11.3682 41.0368 12.5684 41.0368C13.1909 41.0368 13.6354 40.8146 13.9021 40.4145V40.9479H14.8356V38.8142ZM11.3682 38.8142C11.3682 38.0584 11.8573 37.4362 12.6573 37.4362C13.4131 37.4362 13.9466 38.0141 13.9466 38.8142C13.9466 39.5699 13.4131 40.1921 12.6573 40.1921C11.8573 40.1476 11.3682 39.5699 11.3682 38.8142Z" fill="black"/>
<path d="M19.0547 4.27441H33.0573V29.4349H19.0547V4.27441Z" fill="#FF5F00"/>
<path d="M19.9458 16.8547C19.9458 11.7427 22.3462 7.20834 26.0357 4.27437C23.3242 2.14066 19.9014 0.851562 16.1674 0.851562C7.32091 0.851562 0.164062 8.00841 0.164062 16.8547C0.164062 25.701 7.32091 32.8578 16.1672 32.8578C19.9012 32.8578 23.324 31.5687 26.0357 29.4348C22.3462 26.5454 19.9458 21.9667 19.9458 16.8547Z" fill="#EB001B"/>
<path d="M51.9497 16.8547C51.9497 25.7008 44.7929 32.8578 35.9466 32.8578C32.2126 32.8578 28.7898 31.5687 26.0781 29.4348C29.8122 26.501 32.1682 21.9667 32.1682 16.8547C32.1682 11.7427 29.7676 7.20834 26.0781 4.27437C28.7896 2.14066 32.2126 0.851562 35.9466 0.851562C44.7929 0.851562 51.9497 8.05296 51.9497 16.8547Z" fill="#F79E1B"/>
</g>
<defs>
<clipPath id="clip0_98_922">
<rect width="51.8392" height="40.2969" fill="white" transform="translate(0.164062 0.851562)"/>
</clipPath>
</defs>
</svg>
