<svg width="20" height="17" viewBox="0 0 20 17" fill="none" xmlns="http://www.w3.org/2000/svg">
<path d="M17.4878 7.78674L10.0013 15.2743L2.51493 7.7868C2.51491 7.78678 2.5149 7.78676 2.51488 7.78674C1.80252 7.07414 1.40234 6.10779 1.40234 5.10019C1.40234 4.09267 1.80246 3.12639 2.51472 2.41381C2.51475 2.41377 2.51479 2.41374 2.51483 2.4137C2.51486 2.41367 2.5149 2.41363 2.51493 2.41359C3.22752 1.70134 4.1938 1.30122 5.20132 1.30122C6.20894 1.30122 7.17531 1.70142 7.88792 2.41381L7.88811 2.414L9.29451 3.8192L10.0013 4.5254L10.7081 3.8192L12.1145 2.414L12.1208 2.40771L12.127 2.40131C12.4775 2.03837 12.8969 1.74887 13.3605 1.54972C13.8241 1.35057 14.3227 1.24574 14.8273 1.24135C15.3318 1.23697 15.8322 1.33312 16.2992 1.52418C16.7662 1.71525 17.1905 1.99741 17.5473 2.35421C17.9041 2.711 18.1863 3.13527 18.3773 3.60228C18.5684 4.06929 18.6645 4.56967 18.6602 5.07423C18.6558 5.57879 18.5509 6.07743 18.3518 6.54104L19.2706 6.93574L18.3518 6.54105C18.1526 7.00466 17.8631 7.42397 17.5002 7.77451L17.4939 7.78057L17.4878 7.78674Z" stroke="black" stroke-width="2"/>
</svg>
