<svg width="61" height="60" viewBox="0 0 61 60" fill="none" xmlns="http://www.w3.org/2000/svg">
<path d="M30.5 60C22.5435 60 14.9129 56.8393 9.2868 51.2132C3.66071 45.5871 0.5 37.9565 0.5 30C0.5 22.0435 3.66071 14.4129 9.2868 8.7868C14.9129 3.16071 22.5435 0 30.5 0C38.4565 0 46.0871 3.16071 51.7132 8.7868C57.3393 14.4129 60.5 22.0435 60.5 30C60.5 37.9565 57.3393 45.5871 51.7132 51.2132C46.0871 56.8393 38.4565 60 30.5 60ZM24.5 45L51.5 19.5L47 15L24.5 36L14 25.5L9.5 30L24.5 45Z" fill="#199F3A"/>
</svg>
