<svg width="86" height="29" viewBox="0 0 86 29" fill="none" xmlns="http://www.w3.org/2000/svg">
<path d="M44.4771 9.72992C44.4281 13.5986 47.9248 15.7573 50.5589 17.0409C53.2652 18.3578 54.1743 19.2024 54.1635 20.3801C54.1434 22.1825 52.0048 22.978 50.0036 23.0089C46.5122 23.0629 44.4822 22.0662 42.8683 21.3124L41.6106 27.1977C43.2298 27.9438 46.228 28.5945 49.3371 28.623C56.6354 28.623 61.41 25.0205 61.4359 19.4348C61.4645 12.3459 51.6306 11.9535 51.6978 8.78493C51.7209 7.82415 52.6377 6.79887 54.6466 6.53818C55.641 6.40649 58.3859 6.30571 61.4981 7.73882L62.7195 2.04468C61.0459 1.43529 58.8949 0.851767 56.2168 0.851767C49.3475 0.851767 44.5161 4.50341 44.4771 9.72992ZM74.4565 1.34223C73.1238 1.34223 72.0008 2.11959 71.4996 3.31251L61.0744 28.2048H68.3673L69.8186 24.194H78.7303L79.5722 28.2048H86L80.3908 1.34223H74.4565ZM75.4768 8.59882L77.5814 18.686H71.8174L75.4768 8.59882ZM35.6349 1.34257L29.8863 28.2045H36.8359L42.5818 1.3419L35.6349 1.34257ZM25.3542 1.34257L18.1208 19.626L15.1948 4.07979C14.8515 2.34434 13.4956 1.34223 11.9899 1.34223H0.165617L0 2.12228C2.42748 2.64903 5.18553 3.49862 6.85648 4.40766C7.87908 4.96297 8.17067 5.4484 8.50661 6.76796L14.0486 28.2048H21.3925L32.6518 1.34223L25.3542 1.34257Z" fill="url(#paint0_linear_98_914)"/>
<defs>
<linearGradient id="paint0_linear_98_914" x1="3953.76" y1="84.3322" x2="4034.15" y2="-2767.82" gradientUnits="userSpaceOnUse">
<stop stop-color="#222357"/>
<stop offset="1" stop-color="#254AA5"/>
</linearGradient>
</defs>
</svg>
